<?xml version="1.0" encoding="utf-8"?>
<!-- Generator: Adobe Illustrator 21.0.2, SVG Export Plug-In . SVG Version: 6.00 Build 0)  -->
<svg version="1.1" id="Layer_1" xmlns="http://www.w3.org/2000/svg" xmlns:xlink="http://www.w3.org/1999/xlink" x="0px" y="0px"
	 viewBox="0 0 794 3591" style="enable-background:new 0 0 794 3591;" xml:space="preserve">
<style type="text/css">
	.st0{fill:#3DB21A;}
	.st1{fill:#FFFFFF;}
</style>
<rect class="st0" width="794" height="3591"/>
<g transform="translate(0.000000,3591.000000) scale(0.100000,-0.100000)">
	<path class="st1" d="M5991.2,34139.7c-162.1-541.8,141.2-1147.7,133.1-1720.3c-3.5-252,56.6-957-218.5-502.8
		c-128.3,211.9-92.5,859-109.1,1128.4c-32.3,524.5-242,1607.2-261.9,443.7c-9-529.4,157-1075.7,67.5-1615.3
		c-11.9-71.7-103.7-73.3-118-2.2c-114.6,569.8-75.4,2180.3-278.7,2180.3c-341.4,0,156-2336-96.8-2452
		c-340-156.1-230.2,1597.7-225.7,1776.6c8.4,331.4-104.9,1021.7-292,425.2c-143.2-456.5-47.7-1275.7-53.3-1591.2
		c-9-507.7,97.4-1336.9,439.6-1704.4c515-553,564.9-619.5,596.2-1110.1c112.3-1757.2,28.3-1954.9,41.1-2773
		c10.8-688.4,22.4-1426.3,58.3-2072.6c61.4-1103.7,174.3-2558.2-33.7-3650.8c-124.2-652.3-478.8-994.8-671.2-210.1
		c-113.6,463.3-11.9,1078-30.3,1536.5c-34.8,862.2-120.7,1716.3-112.1,2586.7c1.9,198.5,103.2,1891.2-476.1,1059.4
		c-195.1-280.2,77-1482.1,72-1843.2c-12.1-888.6-15.6-1776.9-81.7-2645.2c-26.1-342.6-67.5-984.7-320.4-1121.9
		c-474.1-256.9-602.1,196.3-660.7,543.1c-125.9,746,110.3,1665.6,160.8,2299.1c53.5,670.8,72.2,1349.6,151.6,2015.4
		c52.6,441.7-0.3,1537.2-420.2,694.6c-140.1-281.2-118.9-1218.6-157.5-1546.8c-61.7-525.1-132-1038.1-213.1-1559.9
		c-51.2-329.9-227.9-2711.7-851.4-2074.9c-450.7,460.2,183,2872.1,263.6,3425.7c41.9,287.3,543.1,2541.4-79.2,2233.4
		c-301.1-149-511.3-2031.1-595.8-2469.4c-219.5-1138.2-390.7-2423.3-285.1-3595.8c87.5-971.5,580.1-1683.1,1087.2-2412.6
		c1289.6-1854.9,688.5-4970.9,651.1-7256c-6.4-390.6-123.5-1099-159.8-1480.8c-4-42-2.8-45.8-6-84.4
		c-92.6-1134-356.7-2877-443.1-3978.2c-62.9-801.9-309.8-2677.3,286.3-3237.1c479.9-450.7,1069.3-215.8,1395.4,186.7
		c864,1066.2,417.5,3111.3,285.5,4385.3c-221.6,2137.9-175.8,4167.8-59.8,6304.5c72.1,1327,72.5,2830.5,484.2,4035.4
		C5292,17972,6015.6,18773,6168.9,20217.5c152.1,1433.6,20.8,2866.6-43.8,4322.4c-79.5,1791.8-606.5,4149.2,125.5,5767
		c350.7,775,225.9,1461.2,139.4,2286.4C6379,32697.7,6048.3,34292.4,5991.2,34139.7z"/>
</g>
</svg>
