<?xml version="1.0" encoding="utf-8"?>
<!-- Generator: Adobe Illustrator 21.0.2, SVG Export Plug-In . SVG Version: 6.00 Build 0)  -->
<svg version="1.1" id="Layer_1" xmlns="http://www.w3.org/2000/svg" xmlns:xlink="http://www.w3.org/1999/xlink" x="0px" y="0px"
	 viewBox="0 0 794 3591" style="enable-background:new 0 0 794 3591;" xml:space="preserve">
<g transform="translate(0.000000,3591.000000) scale(0.100000,-0.100000)">
	<path d="M6466,35254c-192.5-577.6,167.7-1223.5,158-1834c-4.2-268.7,67.2-1020.2-259.5-536c-152.4,225.9-109.8,915.7-129.5,1203
		c-38.3,559.1-287.4,1713.4-311,473c-10.7-564.4,186.4-1146.8,80.1-1722c-14.1-76.4-123.1-78.1-140.1-2.4
		c-136.1,607.4-89.5,2324.4-331,2324.4c-405.4,0,185.2-2490.3-115-2614c-403.7-166.4-273.4,1703.3-268,1894
		c10,353.3-124.6,1089.2-346.7,453.3c-170-486.7-56.7-1360-63.3-1696.3c-10.7-541.2,115.6-1425.2,522-1817
		c611.6-589.5,670.8-660.4,708-1183.4c133.3-1873.3,33.6-2084.1,48.8-2956.2c12.8-733.9,26.6-1520.5,69.2-2209.5
		c72.9-1176.6,207-2727.2-40-3892c-147.5-695.4-568.5-1060.5-797-224c-134.9,493.9-14.1,1149.2-36,1638
		c-41.3,919.2-143.3,1829.7-133.1,2757.6c2.3,211.6,122.5,2016.1-565.4,1129.4c-231.7-298.7,91.4-1580,85.5-1965
		c-14.4-947.3-18.5-1894.3-97-2820c-31-365.2-80.1-1049.8-380.5-1196c-563-273.9-715,209.3-784.5,579
		c-149.5,795.3,131,1775.6,191,2451c63.5,715.1,85.7,1438.8,180,2148.5c62.5,470.9-0.4,1638.8-499,740.5
		c-166.4-299.8-141.2-1299.1-187-1649c-73.3-559.8-156.8-1106.7-253-1663c-60.8-351.7-270.6-2890.8-1011-2212
		c-535.2,490.6,217.3,3061.8,313,3652c49.7,306.3,644.9,2709.3-94,2381c-357.5-158.8-607.2-2165.3-707.5-2632.5
		C1011.9,23041,808.6,21671,934,20421c103.9-1035.7,688.8-1794.3,1291-2572c1531.3-1977.4,817.6-5299.3,773.1-7735.4
		c-7.6-416.4-146.6-1171.6-189.8-1578.6c-4.7-44.8-3.3-48.8-7.1-90c-109.9-1208.9-423.6-3067.1-526.2-4241
		c-74.7-854.9-367.9-2854.2,340-3451c569.9-480.5,1269.7-230.1,1657,199c1026,1136.6,495.8,3316.8,339,4675
		c-263.1,2279.1-208.8,4443.1-71,6721c85.6,1414.7,86.1,3017.5,575,4302c520.8,1368.2,1380,2222.1,1562,3762
		c180.6,1528.3,24.7,3056-52,4608c-94.4,1910.2-720.2,4423.3,149,6148c416.4,826.2,268.3,1557.7,165.5,2437.5
		C6926.5,33716.7,6533.8,35416.8,6466,35254z"/>
</g>
</svg>
