<?xml version="1.0" encoding="utf-8"?>
<!-- Generator: Adobe Illustrator 21.0.2, SVG Export Plug-In . SVG Version: 6.00 Build 0)  -->
<svg version="1.1" id="Layer_1" xmlns="http://www.w3.org/2000/svg" xmlns:xlink="http://www.w3.org/1999/xlink" x="0px" y="0px"
	 viewBox="0 0 3000 3000" style="enable-background:new 0 0 3000 3000;" xml:space="preserve">
<style type="text/css">
	.st0{fill:#339933;}
</style>
<g>
	<g transform="translate(0.000000,3591.000000) scale(0.100000,-0.100000)">
		<path class="st0" d="M19078.3,30520.3c-798-214.5-1158.6-648.5-1796.5-963.9c-138.6-69.5-929.7-534.3-797.3-181.9
			c135.3,268.6,748.9,480.4,1094.1,662.1c285,152.3,636.5,324.1,839.6,514.6c48.4,45.3,107.5,69.1,20.3,84.5
			c-139.5,24.7-573.1-208.7-652.7-243.1c-613.8-283.6-1079.5-649.2-1721.3-915.6c-90.2-35.3-205.7,1.9-148.3,47.9
			c364.3,288,863.3,528.8,1320.5,769.5c156.2,82.2,975.2,478.2,854.7,551.2c-94.8,57.5-469-87.2-605.6-145.5
			c-323.7-138.2-616.5-299.4-902.8-460.6c-287.2-161.5-562.2-329.9-853-489.5c-137.2-75.3-353.3-226.1-567.7-225.2
			c-392.8,24,465.5,503.7,534.6,541c376.4,203.5,787.1,384.8,1201.6,563.3c201.8,89.8,485.6,208.8,603.8,340.4
			c159.6,177.7-267.3,63.7-416.1,29c-775.5-197.1-1342.7-566.7-1960.9-879.7c-541-268.3-1344.4-744.7-1243.1-1187.6
			c89.9-360.7,151.4-580.7-235.4-885.6c-701.3-561.9-1461.2-1129-2059.7-1728.1c-429.2-435-814.9-880.6-1116.8-1348
			c-502.4-797.8-766.9-1647.7-1386.6-2421.7c-110.1-141.1-319.2-368.6-618.2-411.6c-339.1-48.7-445.8,190-478.2,329.9
			c-79.1,366.9,239.8,719.8,382.5,1069.4c243.5,610.8,508.3,1215.2,968.8,1788.4c175,203.6,376.3,404,499.6,619.9
			c40.1,70.1,133.2,207.2,23,271.9c-145.3,85.3-469-22.2-602.9-62.9c-340.6-113.1-480-406.7-589.4-601.9
			c-125.5-223.9-189.3-462.4-342.3-681c-440.9-605.8-792.9-1228.4-1145.9-1851.3c-132.2-234.9-286.2-682.7-768.4-778.4
			c-659.3-130.8-909.1,132.9-915,456.4c-22.6,601.5,614.3,1144.6,1029.7,1676.6c377.3,486.1,764.1,967.2,1265.2,1418.6
			c193.6,171.5,416.9,388.3,473.3,591.3c79.2,285.7-450.5,90-657,1.5c-579.2-253.5-822.5-735.1-1164.2-1083.4
			c-370.4-369-725.8-742.3-1065.4-1120.4c-208.5-241.3-1284.9-2000.5-2003.9-1496.3c-200.1,143-131,367.2-72.1,530.4
			c99.5,275.6,290.3,541.3,500.7,795.9c374.5,453.3,868,863.3,1319.3,1292.2c348.4,326.8,753.1,634.8,1108.5,959.5
			c116.5,106.4,906.4,783,194.1,732c-238.4-23.6-440.1-151.9-598.6-244.2c-270.2-157.3-509.3-331.3-735.7-508.4
			c-408.1-319-750.7-658.4-1116.2-992.1c-943.8-864-1671-1814.4-1784.5-2833.6c-37.5-762.2,642.2-1384.6,1460.5-1965.3
			c1048.6-749.6,1444.4-1702.2,1807.6-2610.7c381.5-954.4,719.4-1929.9,1444.2-2826.7c287.6-361.3,473.5-745.3,765.4-1105.9
			c25.4-31,30-33.4,54.1-61.8c866.4-1013.1,1799.8-2018.8,3067.3-2898c584.8-407.5,1186.3-806.7,1884.7-1156.3
			c660.9-330.9,1529.7-729.3,2458.9-765c836-10.5,1527.2,250.4,1337.9,758.4c-217.8,585.2-1116.9,1056.1-1866.2,1448.7
			c-841.4,441-1748.5,844.2-2557,1304.6c-2062.8,1189.7-3499.9,2628.8-4252,4226.5c-424.1,926.4-836.3,1960.9-251.5,2895.5
			c560.5,852.3,1752.1,1511.7,2231.4,2386.9c480.7,937.2,778.3,1901.2,1367.7,2821.2c873.6,1336.1,1760.2,2784.4,4211.3,3465
			c1022.6,284.7,1683.3,737.3,2432.5,1200.8c258.2,174.2,496.2,358.5,744.9,536.8C18598.3,30118.3,19160.4,30493.7,19078.3,30520.3z
			"/>
	</g>
</g>
<g>
	<g transform="translate(0.000000,3591.000000) scale(0.100000,-0.100000)">
		<path d="M10866.7,17410c1202.2-1873.3,2127.7-2483.6,6654.4-1483.8c8136.9,2249.5,12441.5,11663.9,7887,15052
			c-3277,2527.2-15305,2947.2-13263.6,655.8c1905.2-1405.6,6564.3,1763.7,10737.6-249.6c3886.3-1673.4,3708.1-3043.6,3837.3-3831.8
			c180-1410.1-29.5-2965.7-2048.1-4088.9c-1878-1007-3464.6,39.7-7024.6-173.6c-1600-86.7-3735.8-448.8-5374.3-1531.9
			C11050.4,20952.7,10220,18883.3,10866.7,17410z"/>
	</g>
</g>
</svg>
