<?xml version="1.0" encoding="utf-8"?>
<!-- Generator: Adobe Illustrator 21.0.2, SVG Export Plug-In . SVG Version: 6.00 Build 0)  -->
<svg version="1.1" id="Layer_1" xmlns="http://www.w3.org/2000/svg" xmlns:xlink="http://www.w3.org/1999/xlink" x="0px" y="0px"
	 viewBox="0 0 794 3000" style="enable-background:new 0 0 794 3000;" xml:space="preserve">
<g transform="translate(0.000000,3591.000000) scale(0.100000,-0.100000)">
	<path d="M5741.2,34047.9c-1260.1,930.1-2970.3,210-3822.8-663.4c-531.2-843.9-843.4-1351-995.1-2756.9
		c-101.5-1830.2,48.2-2111.4,173.6-3361.4c103.9-1035.7,688.8-1794.3,1291-2572c1531.3-1977.4,817.6-5299.3,773.1-7735.4
		c-7.6-416.4-146.6-1171.6-189.8-1578.6c-4.7-44.8-3.3-48.8-7.1-90c-109.9-1208.9-423.6-3067.1-526.2-4241
		c-74.7-854.9-367.9-2854.2,340-3451c569.9-480.5,1269.7-230.1,1657,199c1026,1136.6,495.8,3316.8,339,4675
		c-263.1,2279.1-208.8,4443.1-71,6721c85.6,1414.7,86.1,3017.5,575,4302c520.8,1368.2,1380,2222.1,1562,3762
		C7331.4,31377.6,6960.5,32667.7,5741.2,34047.9z"/>
</g>
</svg>
