<?xml version="1.0" encoding="utf-8"?>
<!-- Generator: Adobe Illustrator 21.0.2, SVG Export Plug-In . SVG Version: 6.00 Build 0)  -->
<svg version="1.1" id="svg" xmlns="http://www.w3.org/2000/svg" xmlns:xlink="http://www.w3.org/1999/xlink" x="0px" y="0px"
	 viewBox="0 0 350 350" style="enable-background:new 0 0 350 350;" xml:space="preserve">
<g id="svgg">
	<path id="path0" d="M200.2,21.2c-3.6,1.8-5.6,5.4-4.8,9.2c0.5,2.6-1.9,6.1-4.1,6.1c-0.8,0-1.2,0.8-1,1.8c0.2,1,1.1,1.6,2.1,1.5
		c0.9-0.2,1.7,0.2,1.7,0.8c0,0.6,0.9,1,1.9,1s2.2,0.9,2.6,2c0.6,1.9,1.7,2.5,3.9,2.1c0.5-0.1,2.7-0.3,4.8-0.4l3.9-0.2l-0.6,3.7
		c-0.3,2-0.2,4,0.3,4.3c1.1,0.7,0.3,7.4-1.1,9.1c-0.5,0.6-1.1,4-1.5,7.5c-0.3,3.5-1.4,8.2-2.4,10.4c-3.2,7-3.4,8.7-1.3,8.3
		c1-0.2,2-1.2,2.2-2.3c0.2-1.1,0.7-2.4,1.2-2.9c0.5-0.5,0.6-0.1,0.4,1c-0.6,2.5,1.1,5.2,2.5,3.9c1.3-1.3,1.7-7.7,0.7-9.4
		c-0.5-0.8,0.3-2.7,2.1-5c6-7.6,6.7-9.4,7.1-17.7c0.3-6.2,0-8.9-1.3-12c-1-2.2-1.9-7.1-2.1-10.9c-0.4-7.9-2.3-11.9-5.7-11.5
		c-1.2,0.1-3.2-0.3-4.4-0.9C204.5,19.2,204.2,19.2,200.2,21.2 M217,46.1c2.4,6.4,0.5,17.4-4.1,23.3c-2.4,3.1-2.4,1.5,0.2-7.8
		c1.5-5.3,2-9.1,1.6-12.8C214.1,43.2,215.4,41.7,217,46.1 M39.5,80.5c-17.2,4.2-29,20.4-25.1,34.5c3.8,13.7,8.4,17.4,25.4,20.1
		c5.2,0.8,4-1.8-2.6-5.4c-3.2-1.8-6.4-3.9-7.1-4.7c-0.7-0.8-1.8-1.5-2.5-1.5c-2.1,0-5.1-3.3-6.4-6.9c-4.2-12.3,8.1-26.5,22.8-26.2
		c2.8,0.1,8,5.2,8,7.9c0,1,0.5,2.3,1.1,2.9c0.7,0.7,0.9,3.5,0.4,8.4c-1.9,20.5-1.9,19.1,1,23.6c1.5,2.3,3.3,4.2,4.1,4.2
		c0.7,0,1.3,0.7,1.3,1.6s1.4,2,3.1,2.6c2.8,1,3.1,1.4,2.6,4.5c-0.5,3.3,2.5,6.4,6.1,6.4c0.5,0,2.9,1.9,5.3,4.2
		c2.4,2.3,6.4,6,8.9,8.2c2.5,2.2,9,8.2,14.5,13.5c5.5,5.3,12.7,11.9,15.9,14.7l5.9,5.1l-6.9,8.8c-3.8,4.8-9,11.5-11.6,14.9
		c-2.6,3.4-7.4,9.5-10.7,13.6c-3.3,4.1-8,10.1-10.5,13.2c-8.7,11.2-21.9,26.8-22.8,26.8c-2.1,0-0.6,3,2.2,4.4
		c12.6,6.3,23.9-2.4,43.7-33.6c7-10.9,13.7-19.4,15.1-19c0.6,0.1,3.7-3.8,6.9-8.7c6.7-10.6,6.6-10.5,12.7-3.8
		c2.6,2.9,6.5,6.6,8.5,8.2c17.6,14.2,25.3,20.9,32.8,28.4c10.3,10.3,13.2,11.9,16.7,9.4c1.3-1,2.4-2.4,2.4-3.1
		c0-1.8-10.7-15.2-14.8-18.4c-1.8-1.4-10.1-9.1-18.5-17.1c-8.4-8-17.2-16.1-19.7-18.2c-5.9-4.9-5.9-4.7-0.8-11.3
		c2.4-3.1,5.7-7.6,7.2-9.9c1.5-2.3,3.4-4.2,4-4.2c0.7,0,2.4-1.5,3.9-3.4c1.4-1.9,3.2-4,3.9-4.8c0.7-0.7,4.2-5.2,7.7-9.8
		c3.5-4.7,8.7-11.3,11.4-14.6c2.8-3.4,6.8-8.4,9-11.3c3.3-4.2,4.4-5.1,6.3-4.6c2.3,0.6,5-3.4,3.7-5.6c-0.3-0.5,0-0.9,0.8-0.9
		s1.8,1.4,2.5,3c0.8,2.1,1.9,3,3.5,3.1c1.3,0.1,3.3,0.2,4.5,0.2c2.9,0.1,10.5,11,17.8,25.6c3.1,6.2,6.8,13.2,8.3,15.4
		c1.4,2.2,4.3,7.5,6.3,11.6c2.1,4.1,7,12.3,11.1,18.2s10.6,15.4,14.5,21.2c4,5.8,7.6,12.1,8.2,14.1c0.5,2,2.4,5.2,4.1,7.3
		c10.9,12.8,24.1,38.1,22.5,43.1c-1.6,5-48.9,8-79.5,5c-6.9-0.7-24.2-1.3-38.5-1.4c-15.9-0.1-29.3-0.7-34.5-1.5
		c-5.5-0.9-17-1.3-32.6-1.2c-13.3,0.1-28.8-0.3-34.5-0.8c-5.7-0.5-11.8-1.1-13.5-1.2c-6-0.5-8.8,2.1-9.2,8.6
		c-0.5,9.9,0,10.2,20.3,10.4c46.3,0.4,58.9,1,65.2,2.8c5.8,1.6,11.5,1.7,22.8,0.3c1.1-0.1,5.4,0.1,9.7,0.5c5.6,0.5,9,0.3,12.5-0.8
		c7.1-2.2,17.2-1.8,31.8,1.1c15.7,3.1,40.4,2.9,60.3-0.5c3.2-0.5,10.5-0.9,16.4-0.9c9.4,0.1,11-0.2,13.7-2.1
		c1.7-1.2,3.5-2.1,4.1-2.1c1.6,0,3.1-3.5,3.1-7.3c0-1.9,0.3-3.7,0.7-4.1c2.5-2.5-0.8-17.6-4.9-22c-1.6-1.7-4.6-6.5-6.6-10.6
		c-3.4-6.7-12.9-24.4-20-37.1c-6.6-11.8-16-26.5-22.1-34.6c-3.7-4.9-7.7-11-9.1-13.7c-1.3-2.7-3.2-5.4-4.1-6
		c-0.9-0.6-3.4-3.9-5.5-7.3c-2.1-3.4-5.6-8.8-7.7-12c-8.9-13.5-17.4-28.9-16.6-29.8c3.2-3.4,0.4-16.4-4.3-20.4
		c-17.8-15.1-37.6-6.7-36.7,15.5l0.2,5.2l-8.2,8.8c-15.8,17-19.1,20.9-25.8,29.8c-3.7,5-8.3,10.8-10.3,13c-2,2.2-5.8,7-8.5,10.8
		c-5.4,7.5-5.4,7.5-8.3,5c-8.3-7.2-18.6-16.9-24.6-23.2c-3.9-4.1-10-10.1-13.4-13.4c-3.4-3.3-6.2-6.6-6.2-7.3c0-3.2-2.4-6.4-4.7-6.4
		c-3.1,0-5-1.9-4.9-5c0.1-1.9-0.5-2.5-2.2-2.8c-1.3-0.2-3.2-1.2-4.3-2.3c-1.1-1.1-2.6-1.8-3.4-1.5c-2.3,0.9-2.8-1.3-3.1-13.4
		C60.9,90,51.8,77.5,39.5,80.5 M217.3,95.5c2.6,1.6,5.1,3,5.5,3c2.7,0,6.1,11.6,4.3,14.7c-0.8,1.5-1.2,1.3-2.6-1.8
		c-1.7-3.5-6-5.9-11.3-6.3c-2.1-0.1-2.2-0.7-2.2-5.9c0-8.5-2.8-8.2-3.2,0.4c-0.3,5.4-0.6,6.2-2.7,7c-2.3,0.9-2.4,0.8-1.6-3.4
		c0.4-2.3,0.8-5.7,0.9-7.5C204.6,91.2,210.4,91.1,217.3,95.5 M201.3,96.6c-0.8,1.7-1.7,5.1-1.8,7.6c-0.2,3.4-0.8,4.9-2.6,6.1
		c-1.3,0.9-3,2.3-3.7,3.2c-1.2,1.4-1.3,0.9-0.8-3.6c0.7-6.4,6.5-15.6,10.3-16.2C202.8,93.5,202.2,94.9,201.3,96.6 M214.6,126.2
		c-0.8,0.8-3.6-0.5-3.6-1.7c0-0.7,0.6-0.7,2.1,0.1C214.2,125.2,214.9,125.9,214.6,126.2 M-13.4,600.4c0.4,0.8,1.1,2.8,1.5,4.5
		c0.7,2.8,0.7,2.9,0.8,0.5c0.1-1.4-0.6-3.4-1.5-4.5C-13.4,599.9-13.8,599.6-13.4,600.4"/>
</g>
</svg>
